<svg width="14" height="14" viewBox="0 0 14 14" fill="none" xmlns="http://www.w3.org/2000/svg">
<path d="M13 7.52667C12.8951 8.66147 12.4692 9.74294 11.7722 10.6445C11.0751 11.5461 10.1357 12.2305 9.0638 12.6177C7.99194 13.0049 6.83199 13.0787 5.71966 12.8307C4.60734 12.5827 3.58866 12.023 2.78281 11.2172C1.97697 10.4113 1.41729 9.39265 1.16927 8.28033C0.921246 7.16801 0.995139 6.00806 1.3823 4.9362C1.76946 3.86434 2.45388 2.92491 3.35547 2.22784C4.25706 1.53076 5.33853 1.10487 6.47333 1C5.80894 1.89884 5.48923 3.0063 5.57235 4.12094C5.65547 5.23559 6.1359 6.28337 6.92626 7.07373C7.71662 7.86409 8.76441 8.34452 9.87905 8.42765C10.9937 8.51077 12.1012 8.19106 13 7.52667V7.52667Z" fill="#8E44AD" stroke="#8E44AD" stroke-width="0.666667" stroke-linecap="round" stroke-linejoin="round"/>
</svg>
