<?xml version="1.0" ?><svg id="Layer_1" style="enable-background:new 0 0 24 24;" version="1.1" viewBox="0 0 24 24" xml:space="preserve" xmlns="http://www.w3.org/2000/svg" xmlns:xlink="http://www.w3.org/1999/xlink"><path d="M20.488,9.227c-0.001-0.001-0.002-0.001-0.002-0.002C20.339,4.666,16.594,1,12,1  C7.406,1,3.661,4.666,3.514,9.225c0,0.001-0.002,0.001-0.002,0.002C2.523,10.744,2,12.567,2,14.5C2,19.187,5.14,23,9,23h6  c3.86,0,7-3.813,7-8.5C22,12.567,21.477,10.744,20.488,9.227z M12,3c3.415,0,6.218,2.649,6.475,6H5.525C5.782,5.649,8.585,3,12,3z   M5.038,14.691c-0.078-0.187-0.035-0.402,0.108-0.545l2-2c0.195-0.195,0.512-0.195,0.707,0l2,2c0.143,0.143,0.186,0.358,0.108,0.545  C9.885,14.878,9.702,15,9.5,15h-4C5.298,15,5.115,14.878,5.038,14.691z M17.271,18.986c-0.133,0.086-0.28,0.148-0.418,0.227  c0.05,0.21-0.032,0.435-0.228,0.548c-0.079,0.045-0.165,0.067-0.25,0.067c-0.136,0-0.258-0.069-0.354-0.171  c-0.411,0.183-0.835,0.338-1.271,0.463c0.042,0.251-0.106,0.498-0.356,0.565c-0.043,0.012-0.087,0.017-0.13,0.017  c-0.221,0-0.423-0.147-0.483-0.371l-0.002-0.006c-0.42,0.075-0.847,0.12-1.28,0.141V20.5c0,0.276-0.224,0.5-0.5,0.5  c-0.276,0-0.5-0.224-0.5-0.5v-0.034c-0.433-0.021-0.86-0.066-1.28-0.141l-0.002,0.006c-0.06,0.224-0.262,0.371-0.483,0.371  c-0.043,0-0.086-0.005-0.13-0.017c-0.251-0.067-0.398-0.314-0.357-0.565c-0.436-0.124-0.86-0.28-1.271-0.463  c-0.096,0.102-0.218,0.171-0.354,0.171c-0.085,0-0.171-0.021-0.249-0.067c-0.196-0.113-0.279-0.338-0.229-0.548  c-0.137-0.078-0.283-0.14-0.415-0.225c-0.232-0.149-0.299-0.459-0.15-0.691c0.148-0.232,0.457-0.301,0.691-0.15  c0.111,0.071,0.235,0.122,0.349,0.187l0.07-0.122c0.138-0.24,0.443-0.321,0.683-0.183c0.239,0.138,0.321,0.444,0.183,0.683  l-0.042,0.072c0.322,0.134,0.649,0.256,0.987,0.351l0.008-0.028c0.072-0.267,0.347-0.425,0.612-0.354  c0.257,0.069,0.408,0.326,0.355,0.584c0.342,0.056,0.686,0.087,1.033,0.105C11.542,19.194,11.744,19,12,19  c0.256,0,0.458,0.194,0.488,0.442c0.347-0.018,0.691-0.049,1.033-0.105c-0.053-0.257,0.098-0.515,0.355-0.584  c0.268-0.072,0.541,0.087,0.612,0.354l0.008,0.028c0.338-0.094,0.665-0.217,0.987-0.351l-0.042-0.072  c-0.138-0.239-0.056-0.545,0.183-0.683c0.238-0.138,0.544-0.057,0.683,0.183l0.07,0.122c0.115-0.066,0.24-0.117,0.352-0.188  c0.234-0.149,0.543-0.082,0.691,0.15C17.57,18.527,17.503,18.836,17.271,18.986z M18.52,15c-0.006,0-0.013,0-0.02,0h-4  c-0.202,0-0.385-0.122-0.462-0.309c-0.078-0.187-0.035-0.402,0.108-0.545l2-2c0.195-0.195,0.512-0.195,0.707,0l1.926,1.926  c0.144,0.088,0.24,0.246,0.24,0.427C19.02,14.776,18.796,15,18.52,15z" id="XMLID_12_" style="fill:#303C42;"/><g/><g/><g/><g/><g/><g/><g/><g/><g/><g/><g/><g/><g/><g/><g/></svg>