<?xml version="1.0" ?><svg id="Layer_1" style="enable-background:new 0 0 24 24;" version="1.1" viewBox="0 0 24 24" xml:space="preserve" xmlns="http://www.w3.org/2000/svg" xmlns:xlink="http://www.w3.org/1999/xlink"><path d="M15,5c-0.351,0-0.698,0.035-1.042,0.086C13.745,2.801,11.839,1,9.5,1  C9.224,1,9,1.224,9,1.5v2C9,3.776,9.224,4,9.5,4c0.755,0,1.375,0.563,1.479,1.29C10.334,5.103,9.674,5,9,5c-4.411,0-8,4.038-8,9  s3.589,9,8,9h6c4.411,0,8-4.038,8-9S19.411,5,15,5z M17.2,9.1c0.151-0.114,0.355-0.131,0.523-0.047C17.893,9.138,18,9.311,18,9.5v2  c0,0.827-0.673,1.5-1.5,1.5h-3c-0.215,0-0.406-0.138-0.474-0.342c-0.068-0.204,0.002-0.429,0.174-0.558L17.2,9.1z M6,9.5  c0-0.189,0.107-0.362,0.276-0.447C6.446,8.969,6.649,8.986,6.8,9.1l4,3c0.172,0.129,0.243,0.354,0.174,0.558  C10.906,12.862,10.715,13,10.5,13h-3C6.673,13,6,12.327,6,11.5V9.5z M17.773,17.359c-0.026,0.131-0.103,0.246-0.214,0.32  c-0.112,0.073-0.248,0.098-0.378,0.073l-1.296-0.267l-0.788,1.058c-0.149,0.201-0.424,0.26-0.643,0.138l-1.138-0.631l-0.996,0.834  C12.228,18.961,12.114,19,12,19c-0.114,0-0.228-0.039-0.321-0.117l-0.998-0.835l-1.133,0.632c-0.22,0.123-0.495,0.063-0.644-0.138  l-0.787-1.057l-1.295,0.268c-0.13,0.025-0.267,0-0.378-0.073c-0.111-0.074-0.188-0.189-0.214-0.319l-0.308-1.546  c-0.054-0.271,0.122-0.534,0.392-0.588c0.274-0.059,0.534,0.122,0.588,0.393l0.209,1.052l1.114-0.23  c0.19-0.04,0.386,0.035,0.502,0.191l0.715,0.961l1.051-0.586c0.182-0.1,0.406-0.08,0.564,0.053L12,17.848l0.938-0.786  c0.158-0.133,0.384-0.155,0.564-0.054l1.056,0.586l0.716-0.962c0.116-0.155,0.312-0.229,0.502-0.191l1.114,0.229l0.207-1.049  c0.054-0.271,0.317-0.448,0.587-0.394c0.271,0.054,0.447,0.316,0.394,0.587L17.773,17.359z" id="XMLID_7_" style="fill:#303C42;"/><g/><g/><g/><g/><g/><g/><g/><g/><g/><g/><g/><g/><g/><g/><g/></svg>